<svg xmlns="http://www.w3.org/2000/svg" viewBox="0 0 128 128">
  <rect width="128" height="128" rx="20" fill="#24292E"/>
  <path d="M64 36c-16 0-28 12-28 28 0 12 8 22 18 26 2 .5  -1 0-3 0-4-1-6-3-6-6 0-3 1-7 0-10-8 2-10 6-10 6s-2 6-2 12c0 6 4 10 8 12 4 2 8 2 12 2 2 0 4 0 6-1 4 0 8-2 10-4 2-2 4-6 4-10 0-8-6-14-14-16 0 0-2-1-3-1 2-1 6-4 6-10 0-10-8-18-18-18z" fill="#fff" transform="scale(0.9) translate(7,7)"/>
  <text x="64" y="96" font-size="12" font-family="Arial" fill="#fff" text-anchor="middle">GH</text>
</svg>