<svg xmlns="http://www.w3.org/2000/svg" viewBox="0 0 384 384">
  <rect width="384" height="384" rx="60" fill="#24292E"/>
  <path d="M192 108c-48 0-84 36-84 84 0 36 24 66 54 78 6 1  -4 0-10 0-12-3-18-9-18-18 0-9 4-21 0-30-24 6-30 18-30 18s-6 18-6 36c0 18 12 30 24 36 12 6 24 6 36 6 6 0 12 0 18-4 12 0 24-6 30-12 6-6 12-18 12-30 0-24-18-42-42-48 0 0-6-2-9-2 6-2 18-12 18-30 0-30-24-54-54-54z" fill="#fff" transform="scale(0.9) translate(19,19)"/>
  <text x="192" y="276" font-size="30" font-family="Arial" fill="#fff" text-anchor="middle">GH</text>
</svg>